<svg width="49" height="49" viewBox="0 0 49 49" fill="none" xmlns="http://www.w3.org/2000/svg">
<path d="M43.3394 10.2047C42.2832 9.8941 41.1493 9.95279 40.1083 10.3719C39.0674 10.7911 38.1755 11.548 37.5668 12.529C36.9581 13.51 36.6654 14.662 36.7328 15.8119C36.8001 16.9618 37.2239 18.0475 37.9404 18.9057L31.3109 29.7048C31.2144 29.6697 31.1168 29.6365 31.017 29.6072C29.9674 29.2978 28.8406 29.3549 27.8054 29.7699L23.4363 22.8812C23.9703 22.0929 24.2961 21.1755 24.3798 20.2243C24.4636 19.2732 24.3022 18.323 23.9125 17.4727C23.5228 16.6224 22.919 15.903 22.1639 15.3894C21.4088 14.8757 20.5301 14.5866 19.6191 14.5521C18.708 14.5176 17.798 14.739 16.9837 15.1931C16.1693 15.6473 15.4805 16.3178 14.9887 17.1347C14.4969 17.9516 14.2201 18.8852 14.1873 19.8383C14.1544 20.7914 14.3666 21.7292 14.8018 22.5541L9.21284 28.8124C9.06714 28.7537 8.91807 28.7008 8.76455 28.6557C7.59568 28.3109 6.33548 28.4186 5.21267 28.9594C4.08987 29.5002 3.1789 30.4382 2.64511 31.603C2.11132 32.7679 1.9901 34.0825 2.30345 35.3082C2.61679 36.5339 3.34394 37.5894 4.3529 38.2832C5.36186 38.977 6.58575 39.263 7.80243 39.0894C9.0191 38.9158 10.1479 38.2941 10.9839 37.337C11.82 36.38 12.3078 35.1511 12.359 33.8734C12.4101 32.5957 12.0211 31.3539 11.2626 30.3734L16.5437 24.4606C17.269 24.9237 18.1 25.1839 18.9591 25.2172C19.8182 25.2505 20.6774 25.0557 21.4566 24.651L25.6866 31.3208C25.0363 32.1046 24.6106 33.061 24.4601 34.0759C24.3096 35.0908 24.4408 36.1214 24.838 37.0449C25.2351 37.9683 25.8815 38.7455 26.7001 39.284C27.5187 39.8224 28.4749 40.0993 29.4547 40.0817C30.4346 40.064 31.3967 39.7526 32.2264 39.1844C33.056 38.6163 33.7183 37.8154 34.1341 36.8774C34.5499 35.9393 34.7018 34.9036 34.5716 33.8938C34.4415 32.8839 34.0347 31.9425 33.3999 31.1819L40.0292 20.3827C40.1257 20.4178 40.2233 20.451 40.3231 20.4803C41.6176 20.8603 43.018 20.6834 44.2162 19.9886C45.4144 19.2938 46.3123 18.1379 46.7123 16.7753C47.1123 15.4126 46.9816 13.9549 46.3491 12.7226C45.7166 11.4904 44.634 10.5847 43.3394 10.2047ZM6.50231 36.3624C6.01962 36.2207 5.592 35.9316 5.27352 35.5315C4.95504 35.1314 4.76001 34.6384 4.71308 34.1147C4.66616 33.5911 4.76945 33.0604 5.00989 32.5897C5.25033 32.119 5.61713 31.7295 6.06391 31.4705C6.51068 31.2114 7.01735 31.0944 7.51986 31.1342C8.02237 31.1741 8.49814 31.369 8.88701 31.6943C9.27588 32.0196 9.56038 32.4608 9.70454 32.962C9.8487 33.4631 9.84604 34.0018 9.69689 34.5099C9.49624 35.1908 9.04721 35.7682 8.44832 36.1155C7.84942 36.4628 7.14957 36.5516 6.50231 36.3624ZM18.5368 22.4559C18.0541 22.3142 17.6265 22.0251 17.308 21.625C16.9896 21.2249 16.7945 20.7319 16.7476 20.2082C16.7007 19.6846 16.804 19.1539 17.0444 18.6832C17.2849 18.2125 17.6517 17.823 18.0984 17.564C18.5452 17.3049 19.0519 17.1879 19.5544 17.2277C20.0569 17.2675 20.5327 17.4625 20.9215 17.7878C21.3104 18.1131 21.5949 18.5543 21.7391 19.0555C21.8832 19.5566 21.8806 20.0953 21.7314 20.6034C21.5308 21.2843 21.0817 21.8617 20.4828 22.209C19.8839 22.5563 19.1841 22.6451 18.5368 22.4559ZM28.7548 37.3139C28.2721 37.1722 27.8445 36.8831 27.526 36.483C27.2075 36.0829 27.0125 35.5899 26.9655 35.0662C26.9186 34.5426 27.0219 34.0119 27.2623 33.5412C27.5028 33.0705 27.8696 32.681 28.3164 32.422C28.7631 32.1629 29.2698 32.0459 29.7723 32.0857C30.2748 32.1255 30.7506 32.3205 31.1395 32.6458C31.5283 32.9711 31.8128 33.4123 31.957 33.9135C32.1012 34.4146 32.0985 34.9533 31.9493 35.4614C31.7487 36.1423 31.2997 36.7197 30.7008 37.067C30.1019 37.4143 29.402 37.5031 28.7548 37.3139ZM41.0772 17.9114C40.5945 17.7697 40.1669 17.4805 39.8484 17.0805C39.5299 16.6804 39.3349 16.1873 39.288 15.6637C39.241 15.1401 39.3443 14.6094 39.5848 14.1387C39.8252 13.668 40.192 13.2785 40.6388 13.0194C41.0856 12.7604 41.5922 12.6433 42.0947 12.6832C42.5972 12.723 43.073 12.9179 43.4619 13.2433C43.8508 13.5686 44.1353 14.0098 44.2794 14.5109C44.4236 15.0121 44.4209 15.5508 44.2718 16.0589C44.0711 16.7398 43.6221 17.3172 43.0232 17.6645C42.4243 18.0118 41.7245 18.1006 41.0772 17.9114Z" fill="#02FF3A"/>
</svg>
